<?xml version="1.0" standalone="no"?>
<!DOCTYPE svg PUBLIC "-//W3C//DTD SVG 20010904//EN"
 "http://www.w3.org/TR/2001/REC-SVG-20010904/DTD/svg10.dtd">
<svg version="1.0" xmlns="http://www.w3.org/2000/svg"
 width="964.000000pt" height="976.000000pt" viewBox="0 0 964.000000 976.000000"
 preserveAspectRatio="xMidYMid meet">

<g transform="translate(0.000000,976.000000) scale(0.100000,-0.100000)"
fill="#000000" stroke="none">
<path d="M0 4880 l0 -4880 4820 0 4820 0 0 4880 0 4880 -4820 0 -4820 0 0
-4880z m5290 4436 c299 -53 646 -163 842 -268 l57 -30 73 18 c59 16 110 19
273 19 110 0 213 -4 228 -8 39 -11 111 -79 130 -124 8 -21 23 -63 32 -93 9
-30 22 -58 29 -62 6 -4 46 -8 89 -8 142 0 183 -46 231 -260 17 -72 33 -135 66
-255 12 -44 37 -138 56 -210 18 -71 54 -206 79 -300 180 -673 247 -923 260
-980 8 -33 23 -94 34 -135 11 -41 36 -136 55 -210 20 -74 52 -196 72 -270 20
-74 42 -162 50 -195 7 -33 23 -96 34 -140 59 -219 72 -315 54 -400 -18 -87
-37 -130 -82 -184 -52 -65 -78 -85 -151 -123 -60 -30 -74 -33 -176 -37 l-111
-3 -39 -48 c-22 -27 -44 -49 -50 -48 -24 1 -35 -3 -35 -13 0 -8 5 -8 15 1 9 8
15 8 15 2 0 -6 -13 -16 -29 -23 -16 -7 -27 -17 -25 -21 3 -4 -2 -5 -10 -2 -9
3 -26 -6 -42 -22 -24 -23 -36 -27 -93 -29 -124 -3 -128 -4 -134 -25 -3 -12
-14 -20 -26 -20 -12 0 -21 -6 -21 -16 0 -9 5 -12 12 -8 40 25 -182 -230 -271
-311 -149 -135 -270 -226 -416 -312 -106 -63 -283 -152 -350 -176 -215 -78
-283 -100 -374 -122 -58 -14 -122 -30 -142 -35 -20 -6 -46 -10 -57 -10 -14 0
-36 -19 -63 -55 -95 -125 -246 -198 -419 -199 -170 -2 -284 46 -406 169 l-81
81 -74 13 c-112 19 -322 74 -384 101 -11 5 -31 12 -45 15 -64 18 -288 128
-420 207 -254 153 -431 302 -642 541 -37 42 -68 81 -68 85 0 5 33 14 73 20 39
6 81 13 92 15 27 4 72 -29 190 -144 186 -181 410 -342 641 -461 76 -40 258
-111 314 -123 19 -4 41 -11 50 -16 17 -9 201 -52 205 -47 2 2 5 52 6 113 l4
109 -165 56 c-292 99 -535 241 -730 427 -30 28 -52 54 -50 57 6 5 78 -15 140
-39 19 -8 76 -26 125 -41 50 -15 144 -45 210 -67 176 -57 276 -88 470 -142 72
-20 135 -37 142 -37 19 -2 20 -16 12 -108 -14 -158 -11 -262 10 -322 49 -141
150 -240 284 -275 64 -16 73 -16 146 -1 94 19 135 38 190 85 95 81 141 190
140 330 0 48 -4 129 -9 178 -6 64 -5 93 4 101 11 11 109 42 266 84 47 13 207
61 355 106 149 46 292 88 319 94 27 6 56 14 65 19 9 4 31 11 50 15 l34 6 -19
-21 c-49 -55 -225 -188 -349 -266 -97 -60 -294 -149 -430 -193 -55 -17 -112
-36 -127 -42 l-28 -10 0 -110 c0 -110 0 -110 23 -104 12 4 53 13 90 21 115 25
212 57 357 117 189 78 316 150 490 276 120 88 164 125 313 269 66 64 112 101
120 97 7 -4 9 -3 4 1 -4 5 3 19 15 32 l22 24 13 -23 c13 -22 13 -21 11 12 -2
28 1 37 20 45 12 5 22 15 22 21 0 6 7 17 15 24 12 10 15 10 15 -2 0 -8 -5 -19
-12 -26 -6 -6 -9 -14 -6 -17 8 -8 39 6 33 16 -3 4 12 17 35 29 39 20 56 38 24
26 -23 -9 -36 2 -25 23 6 11 19 17 33 15 34 -4 35 -5 8 -14 -18 -6 -6 -8 40
-8 55 1 59 2 25 7 -29 5 -7 8 79 13 97 4 122 9 132 23 14 19 36 12 28 -9 -3
-8 0 -17 7 -21 8 -6 10 2 7 29 -2 20 -3 36 -2 36 1 0 10 3 20 7 13 5 15 3 9
-7 -5 -9 -4 -11 4 -6 6 4 9 12 5 17 -3 5 22 35 57 67 80 73 80 74 171 111 82
35 138 84 164 147 16 38 18 122 4 174 -22 87 -92 345 -130 485 -25 92 -45 169
-89 345 -17 69 -38 148 -45 175 -8 28 -17 61 -21 75 -3 14 -15 59 -26 100 -12
41 -29 107 -39 145 -10 39 -34 131 -54 205 -80 297 -109 408 -126 475 -10 39
-28 106 -40 150 -12 44 -28 105 -35 135 -7 30 -29 116 -48 190 -20 74 -58 223
-85 330 -46 182 -51 195 -73 197 -13 1 -60 5 -103 9 -106 8 -122 24 -166 164
-18 58 -37 111 -43 118 -25 31 -392 1 -682 -57 -263 -52 -588 -152 -730 -224
-44 -22 -93 -47 -110 -55 -60 -31 -151 -97 -198 -145 l-47 -48 -73 59 c-91 74
-147 112 -223 150 -236 119 -413 175 -869 276 -136 31 -290 47 -449 49 l-160
2 -14 -50 c-22 -81 -61 -178 -82 -203 -21 -25 -97 -41 -192 -42 -56 0 -45 25
-117 -265 -32 -127 -47 -185 -71 -265 -12 -41 -28 -104 -36 -139 -8 -35 -16
-67 -19 -71 -3 -4 -11 -36 -19 -71 -8 -35 -26 -107 -41 -159 -14 -52 -40 -147
-56 -210 -17 -63 -40 -149 -51 -190 -11 -41 -26 -100 -34 -130 -7 -30 -22 -89
-33 -130 -11 -41 -45 -174 -76 -295 -31 -121 -63 -242 -70 -270 -8 -27 -23
-84 -33 -125 -11 -41 -31 -118 -45 -170 -135 -501 -147 -552 -147 -599 0 -116
48 -180 181 -245 93 -46 219 -148 219 -178 0 -10 5 -18 12 -18 6 0 8 -3 4 -7
-4 -5 -14 0 -21 11 -8 10 -19 15 -26 10 -23 -14 -239 -4 -283 13 -168 66 -279
224 -278 398 0 82 4 100 122 550 23 88 48 185 56 215 14 58 28 114 64 245 12
44 37 139 55 210 18 72 50 193 70 270 20 77 49 190 65 250 16 61 44 171 64
245 49 190 125 482 146 565 10 39 30 114 44 168 58 217 79 295 92 352 42 177
83 215 234 215 64 0 92 4 94 13 48 171 91 235 184 271 67 26 330 21 488 -10
24 -5 57 7 155 54 130 62 207 91 374 141 190 57 254 70 480 101 104 14 548 5
655 -14z m-1900 -596 c222 -22 590 -87 680 -119 14 -5 66 -21 115 -36 50 -15
99 -31 110 -35 11 -5 31 -12 45 -16 36 -10 186 -82 245 -118 187 -112 285
-246 285 -388 l0 -48 79 2 79 3 4 70 c4 87 38 162 108 239 48 51 175 146 197
146 6 0 13 4 15 9 3 9 138 74 178 85 14 4 34 11 45 16 17 7 87 28 235 71 180
52 620 118 791 119 65 0 70 -6 95 -115 25 -114 41 -177 53 -220 6 -22 20 -80
31 -130 12 -49 27 -117 35 -150 32 -134 46 -193 60 -260 9 -38 22 -99 30 -135
8 -36 23 -103 34 -150 10 -47 29 -130 41 -185 36 -163 48 -215 70 -310 11 -49
27 -119 35 -155 8 -36 24 -105 35 -155 60 -261 88 -383 110 -485 35 -161 50
-231 70 -330 11 -52 29 -138 40 -190 11 -52 27 -130 35 -173 8 -43 17 -82 20
-87 10 -17 -26 -11 -166 24 -116 29 -212 50 -444 96 -49 10 -219 33 -365 50
-94 11 -406 11 -480 0 -232 -34 -324 -69 -476 -182 -58 -43 -150 -147 -119
-133 11 4 40 15 65 24 25 9 50 19 55 22 6 4 62 19 125 33 63 15 129 31 145 36
81 23 334 42 485 36 233 -9 823 -77 1000 -114 25 -6 70 -13 100 -16 30 -4 62
-11 70 -16 22 -14 -28 -12 -200 5 -80 9 -215 22 -300 30 -85 8 -202 19 -260
26 -58 7 -242 12 -410 13 -280 1 -314 -1 -420 -22 -106 -21 -205 -49 -255 -71
-107 -46 -134 -61 -179 -93 -28 -21 -56 -42 -63 -48 -7 -5 -14 -10 -16 -10 -2
0 -6 55 -9 123 -3 71 -10 133 -18 147 -19 38 -51 70 -86 86 -31 15 -31 16 -38
106 -13 185 -7 218 36 218 33 0 141 40 236 87 300 150 484 423 524 776 42 371
-135 730 -453 917 -128 75 -175 94 -339 132 -57 13 -281 13 -340 0 -139 -32
-211 -57 -305 -107 -181 -96 -348 -279 -428 -470 -35 -85 -48 -134 -64 -258
-15 -110 -15 -142 -5 -230 44 -358 234 -623 567 -790 39 -20 92 -41 117 -47
26 -7 52 -18 58 -26 8 -8 10 -60 8 -149 l-3 -136 -43 -36 c-66 -54 -75 -80
-80 -220 -2 -68 -6 -123 -9 -123 -2 0 -27 17 -56 39 -157 116 -364 180 -652
202 -238 18 -694 -4 -1145 -56 -210 -24 -286 -28 -275 -17 13 14 125 32 570
91 307 42 591 63 745 57 207 -9 396 -37 550 -82 88 -26 174 -57 188 -67 29
-23 19 3 -21 49 -92 109 -241 196 -393 229 -38 9 -89 20 -114 26 -70 17 -430
23 -540 10 -52 -7 -147 -18 -210 -26 -63 -8 -126 -17 -140 -20 -14 -3 -61 -12
-105 -20 -109 -20 -279 -59 -440 -100 -33 -8 -65 -15 -71 -15 -13 0 -13 -4 41
250 20 96 45 216 55 265 10 50 35 160 54 245 20 85 45 196 56 245 21 98 37
170 70 315 12 52 38 165 57 250 19 85 40 180 48 210 14 58 46 194 70 295 32
141 57 245 76 325 11 47 26 112 34 145 22 100 84 355 113 465 11 41 25 102 32
134 18 87 29 106 59 106 14 -1 69 -5 121 -10z m1735 -1120 c199 -31 400 -164
519 -343 93 -140 142 -307 133 -452 -5 -82 -36 -233 -56 -273 -5 -10 -18 -39
-31 -67 -71 -160 -230 -314 -414 -399 -62 -30 -67 -31 -169 -52 -342 -70 -698
110 -863 435 -69 137 -94 285 -76 461 21 201 86 336 232 481 71 70 102 93 180
131 90 44 212 83 290 91 46 6 179 -2 255 -13z m-163 -1782 c9 -7 19 -29 22
-49 6 -32 4 -37 -16 -43 -13 -3 -35 -6 -50 -6 -27 0 -28 2 -28 48 0 27 3 52 7
55 11 11 48 8 65 -5z m41 -227 c4 0 7 -15 7 -31 l0 -31 -67 3 c-56 2 -68 6
-71 21 -6 32 15 45 71 42 28 -1 55 -3 60 -4z m-9 -192 c2 -2 8 -143 12 -314 6
-186 11 -284 15 -245 3 36 7 58 8 50 2 -11 5 -10 11 5 6 15 9 7 10 -30 1 -27
5 -68 9 -90 7 -36 8 -33 8 28 1 93 13 98 14 6 1 -41 3 -90 4 -109 6 -111 17
-269 26 -365 13 -135 2 -207 -43 -281 -32 -54 -89 -94 -133 -94 -18 0 -24 -7
-29 -35 -8 -41 -13 -42 -69 -14 -53 27 -81 57 -109 117 -20 43 -22 60 -20 207
2 88 7 243 13 345 6 102 16 316 23 475 12 302 17 327 59 346 21 8 182 7 191
-2z m-2357 -395 c-3 -3 -12 -4 -19 -1 -8 3 -5 6 6 6 11 1 17 -2 13 -5z m4397
-19 c-4 -8 -11 -15 -16 -15 -6 0 -5 6 2 15 7 8 14 15 16 15 2 0 1 -7 -2 -15z
m3 -31 c-3 -3 -12 -4 -19 -1 -8 3 -5 6 6 6 11 1 17 -2 13 -5z m-1970 -46 c-3
-7 -5 -2 -5 12 0 14 2 19 5 13 2 -7 2 -19 0 -25z m-2324 -1678 c87 -10 198
-37 261 -62 104 -43 264 -137 314 -185 7 -7 18 -13 23 -13 30 0 -1 -42 -138
-182 l-85 -87 -76 53 c-66 46 -113 71 -217 116 -99 43 -281 53 -369 20 -151
-57 -158 -207 -13 -275 55 -26 196 -60 287 -70 146 -15 367 -80 435 -127 39
-26 112 -100 132 -132 101 -160 78 -386 -55 -537 -81 -91 -208 -158 -380 -200
-76 -18 -107 -20 -247 -16 -158 5 -207 14 -363 62 -122 37 -381 186 -355 204
5 3 55 63 112 134 56 70 106 127 110 127 4 0 36 -19 70 -41 179 -116 287 -152
466 -153 95 -1 130 3 170 18 121 45 167 146 99 219 -45 49 -122 76 -294 102
-114 17 -234 43 -295 62 -87 28 -209 89 -252 127 -66 58 -120 149 -139 236
-16 70 -16 80 0 159 10 46 27 102 39 125 123 242 400 357 760 316z m4017 -850
l0 -820 -175 0 c-133 0 -175 3 -176 13 -1 6 -1 34 1 60 l2 49 -54 -44 c-89
-71 -159 -98 -265 -99 -150 -2 -280 58 -396 180 -74 77 -120 175 -142 299 -14
85 -14 102 0 200 18 123 34 172 86 262 114 200 389 296 600 210 49 -20 88 -44
121 -77 l49 -48 -5 303 c-3 166 -3 309 1 317 4 12 36 15 179 15 l174 0 0 -820z
m-2886 724 c14 -5 16 -32 16 -200 l0 -193 128 -3 127 -3 0 -130 0 -130 -128
-3 -129 -3 4 -252 c3 -223 5 -255 21 -282 46 -75 117 -92 214 -51 35 14 65 26
68 26 3 0 5 -67 5 -150 l0 -149 -72 -23 c-99 -31 -278 -33 -353 -4 -119 47
-176 104 -220 221 -17 46 -19 77 -17 357 l3 307 -58 3 -58 3 0 130 0 130 53 3
52 3 1 117 c1 64 4 144 8 177 6 57 7 60 41 71 19 6 49 16 65 22 33 11 204 16
229 6z m793 -400 c22 -6 22 -6 25 -357 4 -339 5 -353 26 -394 34 -65 74 -88
152 -88 108 1 168 45 203 149 15 42 17 97 17 368 0 175 3 318 8 318 4 0 57 2
117 4 61 2 138 1 173 -2 l62 -5 0 -568 0 -569 -179 0 c-198 0 -187 -4 -190 64
-2 41 -7 43 -39 14 -99 -91 -229 -124 -371 -94 -124 26 -216 87 -278 183 -57
89 -63 149 -63 588 l0 384 68 4 c126 6 247 7 269 1z m2551 -6 c5 -7 28 -69 51
-138 23 -69 46 -134 51 -145 17 -37 160 -475 160 -490 0 -38 19 -8 40 63 41
141 51 177 65 217 7 22 23 74 35 115 12 41 30 102 40 135 36 120 50 171 56
203 10 48 35 54 214 50 148 -3 155 -4 158 -24 2 -11 -15 -74 -37 -140 -38
-115 -107 -336 -138 -439 -8 -27 -18 -59 -23 -70 -5 -11 -20 -60 -35 -110 -15
-49 -30 -101 -35 -115 -5 -14 -21 -65 -36 -115 -14 -49 -50 -160 -78 -245 -75
-225 -125 -292 -266 -358 -50 -23 -67 -26 -180 -26 -119 -1 -129 1 -210 33
-47 18 -92 39 -99 47 -20 18 -28 232 -11 293 l11 43 22 -19 c52 -46 130 -86
190 -97 79 -15 157 40 157 111 0 22 -31 105 -81 221 -45 103 -97 225 -115 272
-19 47 -39 94 -44 105 -26 57 -50 115 -50 120 0 4 -6 21 -14 38 -22 48 -74
174 -103 247 -14 36 -38 98 -54 139 -16 40 -26 77 -23 82 9 15 370 11 382 -3z
m-4004 -1569 c35 -11 72 -29 81 -39 17 -19 17 -22 -11 -62 -15 -24 -29 -44
-29 -45 -1 -1 -23 9 -50 22 -62 32 -136 34 -165 5 -23 -23 -24 -29 -7 -51 18
-23 49 -37 109 -50 109 -23 162 -67 174 -145 14 -99 -82 -193 -197 -194 -68 0
-174 37 -221 78 -16 14 -16 16 4 46 38 56 45 58 98 25 67 -41 135 -49 173 -19
20 16 27 30 25 48 -3 28 -32 43 -152 78 -71 21 -111 53 -126 100 -28 83 16
170 103 203 67 26 113 26 191 0z m1155 -6 c78 -21 163 -107 181 -182 37 -157
-39 -299 -190 -354 -93 -34 -202 -11 -282 62 -72 64 -92 109 -92 206 -1 69 3
88 28 138 35 71 89 115 170 138 64 18 96 17 185 -8z m707 10 c18 -7 20 -103 2
-104 -7 -1 -42 -2 -78 -4 -36 -1 -71 -3 -77 -3 -10 -2 -13 -54 -13 -222 l0
-221 -57 3 -58 3 -5 220 -5 220 -80 5 -80 5 -3 47 c-3 42 -1 47 20 51 32 6
417 7 434 0z m572 -50 l3 -53 -90 0 -91 0 0 -218 c0 -120 -2 -221 -4 -223 -2
-2 -29 -2 -60 -1 l-56 4 -2 216 -3 217 -78 5 -79 5 -3 47 c-3 46 -2 47 29 51
17 2 121 4 231 3 l200 -1 3 -52z m520 0 l3 -53 -146 0 -146 0 3 -57 3 -58 118
-3 117 -3 0 -49 0 -50 -120 0 -121 0 3 -57 3 -58 143 -3 142 -3 0 -49 0 -50
-207 2 c-159 2 -208 6 -207 16 1 6 2 129 3 272 l1 260 203 -2 202 -3 3 -52z
m487 28 c49 -22 70 -49 91 -117 12 -42 12 -53 -3 -102 -12 -38 -29 -64 -55
-86 l-37 -32 41 -60 c22 -32 49 -70 59 -83 11 -13 19 -28 19 -32 0 -5 -31 -9
-69 -9 -61 0 -70 3 -76 20 -3 11 -10 20 -15 20 -4 0 -10 8 -14 18 -3 9 -19 37
-34 62 -27 43 -31 45 -80 48 l-51 3 -3 -83 -3 -83 -57 -3 -58 -3 0 269 c0 148
3 272 8 277 4 4 72 5 151 1 109 -5 154 -11 186 -25z m-2892 8 c116 -32 159
-167 91 -285 -32 -57 -76 -76 -188 -80 -50 -2 -94 -3 -97 -4 -3 0 -4 -14 -1
-30 2 -17 1 -55 -3 -85 l-6 -54 -52 3 -52 2 -3 272 -2 272 137 0 c76 0 155 -5
176 -11z"/>
<path d="M4737 9153 c-2 -1 -64 -9 -138 -17 -134 -15 -219 -31 -334 -62 -152
-42 -311 -96 -327 -112 -5 -5 25 -20 69 -35 43 -15 125 -43 183 -63 l105 -36
100 25 c161 41 201 47 359 58 247 17 420 1 728 -67 l77 -16 103 36 c57 20 136
46 177 57 74 19 98 29 70 29 -8 0 -30 8 -49 19 -42 22 -201 78 -279 98 -165
42 -265 60 -411 74 -113 11 -426 20 -433 12z"/>
<path d="M7201 4986 c2 -2 35 -7 73 -11 48 -5 66 -4 62 4 -4 6 -36 11 -73 11
-37 0 -64 -2 -62 -4z"/>
<path d="M7248 4961 c7 -4 14 -19 15 -32 2 -35 37 -68 37 -35 0 7 -7 19 -15
26 -9 7 -13 21 -10 31 5 15 1 19 -17 19 -16 0 -19 -3 -10 -9z"/>
<path d="M7180 4948 c1 -15 24 -48 34 -48 3 0 6 9 6 21 0 15 -4 19 -16 15 -12
-4 -15 -2 -10 9 3 8 1 15 -4 15 -6 0 -10 -6 -10 -12z"/>
<path d="M7030 4906 c0 -6 38 -46 44 -46 12 0 -13 37 -29 44 -8 3 -15 4 -15 2z"/>
<path d="M7096 4897 c-18 -13 -18 -14 -1 -21 22 -8 28 -3 23 19 -3 14 -5 14
-22 2z"/>
<path d="M7180 4890 c0 -5 10 -10 23 -10 18 0 19 2 7 10 -19 13 -30 13 -30 0z"/>
<path d="M7050 4830 c0 -5 5 -10 10 -10 6 0 10 5 10 10 0 6 -4 10 -10 10 -5 0
-10 -4 -10 -10z"/>
<path d="M4910 7439 c-254 -32 -453 -189 -538 -424 -67 -186 -47 -380 55 -548
49 -79 169 -199 232 -232 139 -70 350 -104 406 -65 6 3 30 12 55 19 150 43
306 165 404 315 68 104 96 195 96 310 0 192 -77 348 -243 492 -113 99 -306
154 -467 133z m-129 -270 c79 -79 -120 -267 -203 -192 -36 32 -20 100 37 158
60 59 127 73 166 34z"/>
<path d="M6084 2391 c-33 -8 -89 -44 -112 -71 -7 -8 -24 -39 -38 -68 -59 -128
-4 -296 117 -357 119 -61 273 -2 327 125 30 68 35 118 18 183 -20 78 -61 135
-118 164 -51 27 -141 38 -194 24z"/>
<path d="M4205 1016 c-17 -7 -43 -28 -58 -45 -38 -45 -60 -132 -37 -146 6 -3
10 -16 10 -27 0 -12 17 -38 39 -58 92 -88 234 -47 266 77 17 66 5 115 -38 161
-47 49 -121 65 -182 38z"/>
<path d="M6428 955 c-2 -42 -1 -79 1 -81 2 -2 41 -4 86 -4 96 0 120 15 118 77
-2 59 -29 77 -122 81 l-79 4 -4 -77z"/>
<path d="M3578 1024 c-5 -4 -8 -40 -8 -81 l0 -73 78 0 c69 0 81 3 100 23 29
31 29 77 -2 106 -18 17 -40 23 -92 28 -38 3 -72 2 -76 -3z"/>
</g>
</svg>
